<svg width="317" height="106" viewBox="0 0 317 106" fill="none" xmlns="http://www.w3.org/2000/svg">
<path d="M0 83.3776V0H17.342V83.3776H0Z" fill="url(#paint0_linear_25_361)"/>
<path d="M37.8184 33.64V57.2923C37.8184 62.2085 38.5672 65.7024 40.074 67.774C41.5761 69.8365 44.1229 70.8654 47.7096 70.8654C51.3056 70.8654 53.8569 69.8365 55.3637 67.774C56.8659 65.7024 57.6193 62.2085 57.6193 57.2923V33.64H74.9613V61.463C74.9613 69.745 72.7843 75.713 68.4349 79.3715C64.0948 83.0209 57.1848 84.841 47.7096 84.841C38.2436 84.841 31.3337 83.0209 26.9843 79.3715C22.6442 75.713 20.4764 69.745 20.4764 61.463V33.64H37.8184Z" fill="url(#paint1_linear_25_361)"/>
<path d="M78.0869 83.3776V33.6401H95.4289V38.8717H95.6322C100.13 34.4221 104.932 32.1949 110.035 32.1949C113.695 32.1949 117.12 32.9404 120.314 34.4266C123.517 35.9038 125.939 38.1949 127.58 41.3047C132.669 35.2315 138.22 32.1949 144.238 32.1949C149.586 32.1949 154.189 33.6858 158.049 36.6583C161.903 39.6217 163.835 44.2772 163.835 50.6156V83.3776H146.475V55.2619C146.475 52.6186 145.74 50.4052 144.275 48.6217C142.805 46.8427 140.6 45.951 137.656 45.951C135.114 45.951 133.173 46.7147 131.832 48.2376C130.487 49.7513 129.752 51.5759 129.632 53.707V83.3776H112.29V55.2619C112.29 52.6186 111.551 50.4052 110.072 48.6217C108.602 46.8427 106.402 45.951 103.471 45.951C100.781 45.951 98.766 46.7741 97.4256 48.4205C96.0944 50.0668 95.4289 52.0241 95.4289 54.2924V83.3776H78.0869Z" fill="url(#paint2_linear_25_361)"/>
<path d="M168.616 5.92685C170.636 3.91466 173.054 2.90857 175.864 2.90857C178.674 2.90857 181.087 3.91466 183.111 5.92685C185.145 7.92989 186.162 10.3171 186.162 13.0975C186.162 15.8689 185.145 18.2561 183.111 20.2682C181.087 22.2713 178.674 23.2682 175.864 23.2682C173.054 23.2682 170.636 22.2713 168.616 20.2682C166.592 18.2561 165.584 15.8689 165.584 13.0975C165.584 10.3171 166.592 7.92989 168.616 5.92685ZM166.952 33.6401V83.3777H184.294V33.6401H166.952Z" fill="url(#paint3_linear_25_361)"/>
<path d="M188.899 83.3776V33.6401H206.241V38.8717H206.444C210.941 34.4221 215.744 32.1949 220.846 32.1949C223.324 32.1949 225.787 32.5196 228.242 33.1645C230.691 33.8138 233.039 34.8108 235.286 36.1644C237.541 37.5181 239.372 39.4388 240.777 41.9266C242.182 44.4144 242.884 47.3138 242.884 50.6156V83.3776H225.542V55.2619C225.542 52.6781 224.71 50.4144 223.046 48.4754C221.383 46.5363 219.21 45.5668 216.539 45.5668C213.923 45.5668 211.551 46.5729 209.421 48.5851C207.299 50.5881 206.241 52.8107 206.241 55.2619V83.3776H188.899Z" fill="url(#paint4_linear_25_361)"/>
<path d="M249.439 77.2313C244.743 72.146 242.395 65.9219 242.395 58.5546C242.395 51.1918 244.743 44.9586 249.439 39.8595C254.145 34.7513 260.126 32.1949 267.373 32.1949C274.038 32.1949 279.529 34.262 283.846 38.3961V33.6401H301.188V83.3776H284.031V77.7618H283.846C279.529 82.4813 274.038 84.841 267.373 84.841C260.126 84.841 254.145 82.3075 249.439 77.2313ZM264.193 50.1217C261.937 52.3168 260.81 55.1293 260.81 58.5546C260.81 61.9844 261.887 64.7832 264.045 66.9509C266.199 69.1094 269.042 70.1887 272.568 70.1887C275.97 70.1887 278.762 69.0911 280.943 66.896C283.134 64.7009 284.234 61.9204 284.234 58.5546C284.234 55.1293 283.106 52.3168 280.851 50.1217C278.595 47.9266 275.831 46.829 272.568 46.829C269.24 46.829 266.449 47.9266 264.193 50.1217Z" fill="url(#paint5_linear_25_361)"/>
<g filter="url(#filter0_d_25_361)">
<path d="M313 56.4046H301.485C281.765 52.1099 277.379 47.6782 273.114 27.7917V16.6462H271.655V27.9092C267.395 47.6929 262.989 52.1197 243.309 56.4046H234.906V57.8737H243.309C262.989 62.1634 267.395 66.5853 271.655 86.369V97.4263H273.114V86.4865C277.379 66.6 281.765 62.1683 301.485 57.8737H313V56.4046Z" fill="white"/>
</g>
<defs>
<filter id="filter0_d_25_361" x="230.906" y="16.6462" width="86.0942" height="88.7801" filterUnits="userSpaceOnUse" color-interpolation-filters="sRGB">
<feFlood flood-opacity="0" result="BackgroundImageFix"/>
<feColorMatrix in="SourceAlpha" type="matrix" values="0 0 0 0 0 0 0 0 0 0 0 0 0 0 0 0 0 0 127 0" result="hardAlpha"/>
<feOffset dy="4"/>
<feGaussianBlur stdDeviation="2"/>
<feComposite in2="hardAlpha" operator="out"/>
<feColorMatrix type="matrix" values="0 0 0 0 0 0 0 0 0 0 0 0 0 0 0 0 0 0 0.25 0"/>
<feBlend mode="normal" in2="BackgroundImageFix" result="effect1_dropShadow_25_361"/>
<feBlend mode="normal" in="SourceGraphic" in2="effect1_dropShadow_25_361" result="shape"/>
</filter>
<linearGradient id="paint0_linear_25_361" x1="8.67098" y1="0" x2="8.67098" y2="83.3776" gradientUnits="userSpaceOnUse">
<stop stop-color="#9560FF"/>
<stop offset="0.43" stop-color="#C7ADFB"/>
<stop offset="0.76" stop-color="#8D6FCA"/>
<stop offset="1" stop-color="#543199"/>
</linearGradient>
<linearGradient id="paint1_linear_25_361" x1="47.7188" y1="33.64" x2="47.7188" y2="84.841" gradientUnits="userSpaceOnUse">
<stop stop-color="#9560FF"/>
<stop offset="0.427884" stop-color="#C7ADFB"/>
<stop offset="0.764427" stop-color="#8D6FCA"/>
<stop offset="1" stop-color="#543199"/>
</linearGradient>
<linearGradient id="paint2_linear_25_361" x1="120.961" y1="32.1949" x2="120.961" y2="83.3776" gradientUnits="userSpaceOnUse">
<stop stop-color="#9560FF"/>
<stop offset="0.427884" stop-color="#C7ADFB"/>
<stop offset="0.764427" stop-color="#8D6FCA"/>
<stop offset="1" stop-color="#543199"/>
</linearGradient>
<linearGradient id="paint3_linear_25_361" x1="175.873" y1="2.90857" x2="175.873" y2="83.3777" gradientUnits="userSpaceOnUse">
<stop stop-color="#9560FF"/>
<stop offset="0.427884" stop-color="#C7ADFB"/>
<stop offset="0.764427" stop-color="#8D6FCA"/>
<stop offset="1" stop-color="#543199"/>
</linearGradient>
<linearGradient id="paint4_linear_25_361" x1="215.891" y1="32.1949" x2="215.891" y2="83.3776" gradientUnits="userSpaceOnUse">
<stop stop-color="#9560FF"/>
<stop offset="0.427884" stop-color="#C7ADFB"/>
<stop offset="0.764427" stop-color="#8D6FCA"/>
<stop offset="1" stop-color="#543199"/>
</linearGradient>
<linearGradient id="paint5_linear_25_361" x1="288.152" y1="21.0365" x2="289.021" y2="88.6461" gradientUnits="userSpaceOnUse">
<stop stop-color="#9560FF"/>
<stop offset="0.43" stop-color="#C7ADFB"/>
<stop offset="0.76" stop-color="#8D6FCA"/>
<stop offset="1" stop-color="#543199"/>
</linearGradient>
</defs>
</svg>
