<svg width="722" height="731" viewBox="0 0 722 731" fill="none" xmlns="http://www.w3.org/2000/svg">
<path d="M51.7634 617.666L131.069 617.315L210.374 617.183L369 616.935L527.626 617.183L606.931 617.3L686.237 617.666L606.931 618.017L527.626 618.148L369 618.397L210.374 618.148L131.069 618.017L51.7634 617.666Z" fill="#263238"/>
<path d="M386.122 671.058C382.934 672.067 292.13 670.912 288.706 668.69C287.392 667.856 286.802 654.742 286.536 638.879C286.536 638.704 286.536 638.543 286.536 638.382C286.536 635.107 286.433 631.745 286.433 628.324C286.433 627.856 286.433 627.388 286.433 626.862L290.861 580.195L351.613 580.794L345.62 627.023L345.546 628.85L345.177 638.426V639.406C345.177 639.406 379.731 655.254 383.243 658.09C386.756 660.926 389.31 670.049 386.122 671.058Z" fill="#F7A9A0"/>
<path d="M386.122 671.058C382.934 672.067 292.13 670.912 288.706 668.69C287.392 667.856 286.802 654.742 286.536 638.879C286.536 638.704 286.536 638.543 286.536 638.382C286.536 635.107 286.433 631.745 286.433 628.324C286.433 627.856 286.433 627.388 286.433 626.862L345.591 627.023L345.517 628.85L345.148 638.426V639.406C345.148 639.406 379.701 655.254 383.214 658.09C386.727 660.926 389.31 670.049 386.122 671.058Z" fill="#EBEBEB"/>
<path d="M386.136 671.058C384.498 671.584 359.819 671.526 335.701 671.058C330.86 670.97 326.034 670.853 321.429 670.736C304.233 670.269 290.019 669.567 288.706 668.704C287.392 667.842 286.802 655.137 286.536 639.566C286.536 639.347 286.536 639.128 286.536 638.909C286.536 638.689 286.536 638.558 286.536 638.397L345.059 638.499V639.493C345.059 639.493 379.627 655.327 383.125 658.163C386.623 660.999 389.31 670.049 386.136 671.058Z" fill="#230067"/>
<path d="M385.148 667.549C369.841 666.979 308.056 666.087 292.883 666.701C292.765 666.701 292.765 666.789 292.883 666.804C308.041 667.695 369.827 668.061 385.133 667.798C385.457 667.798 385.457 667.564 385.148 667.549Z" fill="#263238"/>
<path d="M351.627 638.733C345.62 637.534 338.24 638.368 333.576 642.549C333.399 642.71 333.576 642.973 333.827 642.915C339.591 641.148 345.528 639.996 351.539 639.479C351.63 639.475 351.717 639.439 351.784 639.378C351.851 639.316 351.894 639.233 351.904 639.143C351.915 639.054 351.893 638.963 351.842 638.888C351.792 638.813 351.715 638.758 351.627 638.733Z" fill="#263238"/>
<path d="M355.937 641.379C349.93 640.195 342.55 641.014 337.901 645.21C337.709 645.371 337.901 645.619 338.152 645.561C343.915 643.796 349.853 642.649 355.864 642.14C355.965 642.149 356.067 642.119 356.146 642.054C356.225 641.99 356.274 641.897 356.284 641.796C356.294 641.695 356.263 641.595 356.198 641.517C356.133 641.438 356.039 641.389 355.937 641.379Z" fill="#263238"/>
<path d="M360.262 644.04C354.24 642.841 346.875 643.66 342.211 647.856C342.033 648.017 342.211 648.265 342.461 648.207C348.227 646.449 354.164 645.303 360.173 644.786C360.265 644.782 360.352 644.746 360.419 644.685C360.486 644.623 360.528 644.54 360.539 644.45C360.55 644.361 360.528 644.27 360.477 644.195C360.426 644.12 360.35 644.065 360.262 644.04Z" fill="#263238"/>
<path d="M335.701 671.058C330.86 670.97 326.034 670.853 321.429 670.736C304.233 670.269 290.019 669.567 288.706 668.704C287.392 667.842 286.802 655.137 286.536 639.566C286.536 639.347 286.536 639.128 286.536 638.909C286.536 638.689 286.536 638.558 286.536 638.397C294.595 643.938 322.845 662.564 335.701 671.058Z" fill="#263238"/>
<path d="M349.089 638.689H283.687C283.687 638.689 296.853 487.372 296.351 484.726C295.687 481.349 291.835 466.027 286.698 446.027C285.075 439.755 283.348 433.044 281.532 426.085C276.661 407.255 271.289 386.684 266.61 368.79C259.569 341.962 254.079 321.128 254.079 321.128H309.517C309.517 321.128 315.982 341.421 324.115 367.81C337.399 410.705 355.111 469.726 356.867 484.083C359.701 507.314 349.089 638.689 349.089 638.689Z" fill="#263238"/>
<path d="M346.196 627.622C336.203 627.417 339.082 627.344 329.089 627.242C324.203 627.242 292.071 626.92 287.51 627.666C287.407 627.666 287.407 627.856 287.51 627.87C292.071 628.616 324.203 628.353 329.089 628.294C339.082 628.207 336.203 628.119 346.196 627.914C346.215 627.914 346.234 627.911 346.252 627.903C346.27 627.896 346.287 627.885 346.3 627.872C346.314 627.858 346.325 627.842 346.332 627.824C346.34 627.806 346.343 627.787 346.343 627.768C346.343 627.749 346.34 627.73 346.332 627.712C346.325 627.694 346.314 627.678 346.3 627.665C346.287 627.651 346.27 627.64 346.252 627.633C346.234 627.626 346.215 627.622 346.196 627.622Z" fill="#37474F"/>
<path d="M308.646 475.486C306.506 466.115 303.303 456.934 300.514 447.708C294.846 429.053 289.139 410.422 283.392 391.816C280.529 382.488 277.65 373.161 274.757 363.833C273.291 359.145 271.815 354.442 270.329 349.725C268.853 345.134 267.215 340.573 265.901 335.938C265.37 334.038 265.075 335.076 265.754 337.474C267.141 342.313 268.499 347.152 269.916 351.962C272.73 361.514 275.564 371.056 278.418 380.588C284.105 399.565 289.827 418.532 295.584 437.489C298.467 446.992 301.35 456.495 304.233 465.998C305.701 470.516 306.884 475.121 307.776 479.785C308.542 484.663 308.736 489.613 308.351 494.536C307.731 504.449 306.565 514.346 305.635 524.229C304.706 534.113 303.79 544.054 302.861 553.966C301.02 573.694 299.195 593.416 297.385 613.134C297.163 615.634 296.942 618.134 296.75 620.634C296.676 621.467 297.96 621.409 298.049 620.634C300.204 601.131 301.857 581.569 303.702 562.037C305.547 542.504 307.377 523.162 309.207 503.732C309.68 498.849 310.196 493.966 310.196 489.112C310.21 484.526 309.69 479.954 308.646 475.486Z" fill="#37474F"/>
<path d="M303.229 321.128C299.377 350.617 292.041 405.924 286.698 446.027C274.182 397.415 254.079 321.128 254.079 321.128H303.229Z" fill="#37474F"/>
<path d="M316.838 671.921C313.65 672.944 222.832 672.111 219.422 669.903C218.094 669.084 217.444 655.97 217.12 640.107V639.61C217.046 636.335 216.987 632.973 216.972 629.552C216.972 629.084 216.972 628.616 216.972 628.09C216.751 605.18 218.448 581.423 218.448 581.423L277.813 581.803L276.16 628.031V629.873L275.82 639.435V640.429C275.82 640.429 310.432 656.146 313.96 658.967C317.488 661.789 320.026 670.897 316.838 671.921Z" fill="#F7A9A0"/>
<path d="M316.838 671.921C313.65 672.944 222.832 672.111 219.422 669.903C218.094 669.084 217.444 655.97 217.12 640.107V639.61C217.046 636.335 216.987 632.973 216.972 629.552C216.972 629.084 216.972 628.616 216.972 628.09H276.13V629.932L275.791 639.493V640.488C275.791 640.488 310.403 656.204 313.93 659.026C317.458 661.847 320.026 670.897 316.838 671.921Z" fill="#EBEBEB"/>
<path d="M316.838 671.921C313.65 672.944 222.832 672.111 219.422 669.903C218.094 669.084 217.444 655.97 217.12 640.107V639.61L275.717 639.493V640.488C275.717 640.488 310.329 656.204 313.857 659.026C317.384 661.847 320.026 670.897 316.838 671.921Z" fill="#230067"/>
<path d="M315.864 668.426C300.558 667.915 238.773 667.271 223.599 667.915C223.481 667.915 223.481 668.002 223.599 668.002C238.758 668.85 300.543 668.982 315.849 668.675C316.159 668.66 316.159 668.426 315.864 668.426Z" fill="#263238"/>
<path d="M282.226 639.727C276.204 638.558 268.839 639.406 264.189 643.616C264.012 643.777 264.189 644.026 264.44 643.967C270.203 642.186 276.14 641.015 282.152 640.473C282.242 640.466 282.327 640.429 282.392 640.366C282.457 640.303 282.497 640.22 282.506 640.131C282.515 640.042 282.492 639.952 282.44 639.878C282.389 639.805 282.313 639.751 282.226 639.727Z" fill="#263238"/>
<path d="M286.551 642.359C280.529 641.189 273.163 642.037 268.514 646.248C268.337 646.409 268.514 646.657 268.765 646.599C274.526 644.815 280.464 643.649 286.477 643.119C286.579 643.129 286.68 643.098 286.759 643.034C286.838 642.969 286.888 642.876 286.898 642.776C286.907 642.675 286.876 642.574 286.811 642.496C286.746 642.418 286.653 642.369 286.551 642.359Z" fill="#263238"/>
<path d="M290.875 644.991C284.853 643.821 277.488 644.669 272.838 648.879C272.661 649.04 272.838 649.289 273.089 649.23C278.851 647.447 284.789 646.28 290.801 645.751C290.852 645.756 290.903 645.751 290.951 645.736C290.999 645.721 291.044 645.697 291.084 645.665C291.123 645.633 291.155 645.594 291.179 645.55C291.202 645.506 291.217 645.457 291.222 645.407C291.227 645.357 291.222 645.307 291.207 645.259C291.192 645.211 291.168 645.166 291.136 645.128C291.104 645.089 291.064 645.057 291.019 645.033C290.975 645.01 290.926 644.995 290.875 644.991Z" fill="#263238"/>
<path d="M307.716 321.128C307.716 321.128 306.447 347.444 300.336 368.205C299.849 369.93 299.318 371.626 298.742 373.249C293.18 375.47 287.834 378.191 282.772 381.377C282.772 381.377 282.137 402.518 281.488 426.085C280.779 452.401 280.012 481.831 280.204 488.059C280.75 511.378 277.252 639.625 277.252 639.625L211.865 639.888C211.865 639.888 223.673 496.612 223.673 488.133C223.555 474.39 226.846 413.702 229.385 369.433C230.95 342.152 232.219 321.187 232.219 321.187L307.716 321.128Z" fill="#263238"/>
<path d="M275.053 628.104C265.075 627.944 267.938 627.856 257.946 627.797C253.06 627.797 220.928 627.637 216.367 628.397C216.339 628.397 216.313 628.408 216.294 628.427C216.274 628.446 216.263 628.472 216.263 628.499C216.263 628.526 216.274 628.552 216.294 628.572C216.313 628.591 216.339 628.601 216.367 628.601C220.942 629.332 253.06 628.923 257.946 628.85C267.938 628.718 265.075 628.645 275.067 628.397C275.244 628.397 275.244 628.119 275.053 628.104Z" fill="#37474F"/>
<path d="M237.636 330.514C236.44 366.655 235.156 402.796 233.533 438.922C231.909 475.048 229.695 511.393 226.625 547.548C224.913 567.738 223.304 596.16 221.105 616.262C221.105 616.408 221.297 616.452 221.311 616.262C226.079 580.414 228.691 536.086 231.068 500.019C233.444 463.951 234.994 427.81 236.248 391.699C236.942 371.231 237.474 350.763 238.093 330.397C238.153 330.207 237.636 330.237 237.636 330.514Z" fill="#37474F"/>
<path d="M301.502 371.684C295.001 374.37 288.748 377.614 282.816 381.377C282.779 381.409 282.754 381.452 282.744 381.5C282.734 381.548 282.741 381.598 282.763 381.641C282.785 381.685 282.821 381.72 282.866 381.741C282.91 381.762 282.96 381.768 283.008 381.757C289.325 378.716 295.761 375.792 301.886 372.43C301.968 372.37 302.026 372.284 302.049 372.186C302.073 372.088 302.06 371.985 302.014 371.895C301.968 371.806 301.891 371.735 301.798 371.697C301.704 371.658 301.599 371.654 301.502 371.684Z" fill="#37474F"/>
<path d="M301.872 349.418C301.444 351.728 300.883 354.009 300.396 356.289C299.908 358.57 299.569 360.675 299.008 362.751C298.539 364.806 297.483 366.683 295.968 368.161C295.111 368.95 294.182 369.623 293.266 370.354C292.779 370.749 292.248 371.114 291.79 371.509C291.79 371.202 291.909 370.895 291.968 370.573L292.41 367.956C292.75 366.026 293.06 364.082 293.355 362.108C293.945 358.292 294.492 354.433 295.303 350.646C295.294 350.62 295.277 350.598 295.255 350.582C295.232 350.566 295.205 350.558 295.178 350.558C295.15 350.558 295.123 350.566 295.101 350.582C295.078 350.598 295.061 350.62 295.052 350.646C294.093 354.389 293.03 358.102 292.204 361.874C291.79 363.731 290.329 372.883 290.255 373.57C290.182 374.257 290.137 374.915 290.108 375.588C290.027 376.268 290.027 376.955 290.108 377.635C290.118 377.667 290.139 377.696 290.167 377.716C290.195 377.737 290.228 377.748 290.263 377.748C290.297 377.748 290.331 377.737 290.359 377.716C290.387 377.696 290.407 377.667 290.418 377.635C290.703 377.001 290.902 376.332 291.008 375.646C291.171 374.988 291.318 374.331 291.436 373.658C291.436 373.424 291.525 373.176 291.554 372.927C292.469 372.386 293.311 371.655 294.167 371.056C295.023 370.456 296.012 369.754 296.883 369.023C298.485 367.682 299.643 365.894 300.204 363.892C300.762 361.735 301.123 359.533 301.281 357.313C301.576 354.71 301.798 352.108 302.167 349.506C302.137 349.301 301.901 349.228 301.872 349.418Z" fill="#37474F"/>
<path d="M272.514 253.35C281.547 268.248 320.085 300.426 333.665 301.187C343.48 301.742 377.561 275.046 386.712 265.675C395.568 256.61 363.509 232.049 357.96 236.961C350.107 243.964 332.971 264.14 329.178 264.739C326.506 265.192 310.122 257.59 284.691 243.218C270.625 235.382 267.156 244.461 272.514 253.35Z" fill="#F7A9A0"/>
<path d="M369.428 222.809C374.889 219.768 380.911 215.835 387.406 214.826C393.9 213.817 400.778 221.361 401.206 223.774C401.634 226.186 401.856 241.742 395.391 242.867C388.926 243.993 390.771 231.698 390.284 230.411C389.797 229.125 389.265 227.487 388.07 227.794C386.874 228.101 367.273 241.888 367.273 241.888L369.428 222.809Z" fill="#F7A9A0"/>
<path d="M369.989 223.686C370.358 223.686 386.505 213.832 393 212.838C399.494 211.844 406.372 219.358 406.8 221.785C407.228 224.212 407.464 239.753 400.985 240.879C394.505 242.005 396.365 229.709 395.893 228.423C395.42 227.136 394.859 225.499 393.664 225.806C392.468 226.113 372.867 239.9 372.867 239.9L369.989 223.686Z" fill="#F7A9A0"/>
<path d="M398.638 240.382C397.761 239.37 397.162 238.152 396.896 236.844C396.513 235.499 396.349 234.103 396.409 232.707C396.559 231.494 396.613 230.272 396.572 229.052C396.357 227.866 395.85 226.751 395.096 225.806C394.431 225.002 393.546 225.47 392.778 225.894C391.652 226.559 390.568 227.291 389.531 228.087C388.409 228.905 387.288 229.753 386.181 230.601C384.992 231.425 383.858 232.323 382.786 233.291C382.697 233.364 382.786 233.511 382.889 233.452C383.936 232.832 384.946 232.154 385.915 231.42C387.051 230.645 388.173 229.856 389.325 229.095C390.476 228.335 391.42 227.633 392.498 226.932C392.882 226.683 393.634 226.098 394.122 226.128C394.609 226.157 395.096 227.312 395.273 227.677C395.745 228.784 395.879 230.005 395.657 231.186C395.538 232.392 395.538 233.606 395.657 234.812C395.74 235.95 396.03 237.065 396.513 238.101C397.087 239.013 397.771 239.853 398.55 240.601C398.52 240.66 398.756 240.484 398.638 240.382Z" fill="#263238"/>
<path d="M352.439 244.022C352.439 244.022 367.524 224.709 370.683 220.85C377.029 213.101 406.328 194.855 410.638 193.627C414.948 192.399 418.121 201.054 398.343 214.095C387.922 220.937 387.051 227.692 387.893 231.201C388.734 234.709 393.324 240.733 399.317 239.534C405.31 238.335 407.686 228.935 413.059 227.005C418.431 225.075 416.542 235.777 413.664 242.239C410.56 248.564 405.708 253.887 399.671 257.59C394.8 260.426 379.893 270.119 379.893 270.119L352.439 244.022Z" fill="#F7A9A0"/>
<path d="M406.062 233.993C404.099 236.128 401.929 238.832 398.963 239.461C395.996 240.09 393.531 238.467 391.657 236.23C389.648 234.053 388.559 231.196 388.616 228.247C388.858 225.546 389.883 222.972 391.568 220.835C393.621 218.233 396.048 215.943 398.771 214.037C398.889 213.949 398.771 213.788 398.623 213.861C396.07 215.572 388.055 220.572 387.671 228.408C387.628 231.42 388.76 234.331 390.83 236.537C392.586 238.671 394.933 240.631 397.9 240.353C401.516 240.031 404.07 236.625 406.254 234.037C406.343 233.92 406.166 233.92 406.062 233.993Z" fill="#263238"/>
<path d="M357.31 237.517L382.136 281.888C382.136 281.888 345 303.57 333.015 302.356C321.03 301.143 286.063 273.116 272.396 254.695C264.071 243.511 269.916 234.037 286.152 242.429C302.816 251.04 326.211 262.897 327.879 263.175C329.546 263.452 357.31 237.517 357.31 237.517Z" fill="#455A64"/>
<path d="M333.207 272.707C333.667 273.665 333.985 274.685 334.152 275.733C333.453 274.926 332.881 274.019 332.454 273.043C331.989 272.085 331.666 271.066 331.495 270.017C332.193 270.827 332.77 271.733 333.207 272.707ZM364.823 260.09C364.999 261.138 365.322 262.156 365.782 263.116C366.209 264.092 366.781 264.999 367.48 265.806C367.118 263.702 366.201 261.73 364.823 260.09ZM296.779 252.926C296.948 253.974 297.266 254.993 297.724 255.952C298.165 256.916 298.736 257.816 299.421 258.628C299.259 257.578 298.941 256.558 298.477 255.601C298.041 254.635 297.469 253.734 296.779 252.926ZM334.107 293.95C335.166 293.778 336.195 293.458 337.163 292.999C338.141 292.573 339.051 292.007 339.864 291.318C338.807 291.491 337.779 291.806 336.808 292.254C335.829 292.704 334.92 293.29 334.107 293.994V293.95ZM370.727 281.274C372.847 280.913 374.836 280.011 376.498 278.657C375.439 278.822 374.41 279.137 373.443 279.593C372.461 280.04 371.547 280.621 370.727 281.318V281.274ZM354.122 246.493C355.182 246.346 356.215 246.05 357.192 245.616C358.177 245.193 359.093 244.627 359.908 243.935C358.849 244.097 357.819 244.413 356.852 244.87C355.869 245.28 354.949 245.826 354.122 246.493ZM313.015 265.806C312.395 266.67 311.898 267.615 311.539 268.613C311.151 269.601 310.912 270.641 310.831 271.698C311.454 270.836 311.951 269.891 312.307 268.891C312.695 267.903 312.934 266.863 313.015 265.806ZM351.775 272.897C350.546 274.627 349.784 276.641 349.561 278.745C350.196 277.895 350.694 276.953 351.037 275.952C351.423 274.972 351.671 273.944 351.775 272.897ZM283.097 254.783C282.471 255.643 281.973 256.588 281.621 257.59C281.235 258.579 280.991 259.618 280.897 260.675C281.526 259.816 282.024 258.87 282.373 257.868C282.759 256.878 283.003 255.84 283.097 254.783ZM295.702 275.616C294.833 274.996 293.879 274.504 292.868 274.154C291.863 273.773 290.81 273.532 289.739 273.438C290.607 274.058 291.562 274.55 292.573 274.9C293.577 275.281 294.63 275.522 295.702 275.616ZM347.465 259.768C346.593 259.154 345.639 258.661 344.631 258.306C343.634 257.922 342.584 257.685 341.517 257.604C342.387 258.222 343.341 258.714 344.351 259.066C345.348 259.451 346.398 259.687 347.465 259.768ZM322.255 284.622C321.388 284.008 320.439 283.516 319.436 283.16C318.431 282.779 317.378 282.538 316.307 282.444C317.172 283.069 318.127 283.562 319.141 283.906C320.14 284.282 321.189 284.513 322.255 284.593V284.622ZM361.28 290.938C360.414 290.324 359.465 289.832 358.461 289.476C357.458 289.093 356.404 288.857 355.332 288.774C356.204 289.389 357.158 289.881 358.166 290.236C359.165 290.617 360.214 290.854 361.28 290.938Z" fill="white"/>
<path d="M359.804 266.186C358.181 262.824 351.775 249.3 350.447 245.821C350.447 245.821 350.447 245.718 350.55 245.821C352.469 248.891 359.184 262.049 360.882 265.426C364.313 272.078 367.373 278.911 370.048 285.894C370.048 286.011 369.915 286.143 369.826 286.011C366.048 279.593 363.007 272.838 359.804 266.186Z" fill="#263238"/>
<path d="M272.396 254.724C283.481 269.622 308.528 290.909 324.056 299.067L276.573 239.3C267.968 238.598 266.02 246.157 272.396 254.724Z" fill="#263238"/>
<path d="M225.37 360.164C225.621 360.398 321.429 353.892 322.226 352.854C323.347 351.392 293.03 254.9 285.429 240.777C282.196 234.739 266.698 233.876 260.573 239.578C245.237 253.862 234.566 300.046 232.322 313.891C228.603 336.728 224.514 359.33 225.37 360.164Z" fill="#455A64"/>
<path d="M272.765 269.841C273.225 270.805 273.543 271.829 273.71 272.882C273.011 272.075 272.439 271.168 272.012 270.192C271.554 269.233 271.236 268.214 271.067 267.166C271.753 267.978 272.324 268.878 272.765 269.841ZM282.034 306.391C282.399 308.492 283.31 310.462 284.676 312.108C284.311 310.008 283.401 308.037 282.034 306.391ZM292.898 349.082C293.069 350.131 293.392 351.15 293.857 352.108C294.283 353.084 294.856 353.991 295.554 354.798C295.192 352.694 294.276 350.722 292.898 349.082ZM248.618 297.02C248.786 298.068 249.104 299.087 249.562 300.046C249.994 301.019 250.566 301.925 251.26 302.736C250.903 300.634 249.991 298.662 248.618 297.02ZM234.684 324.871C234.858 325.92 235.181 326.939 235.643 327.897C236.074 328.867 236.646 329.768 237.341 330.573C236.983 328.472 236.065 326.504 234.684 324.871ZM272.425 340.354C272.59 341.403 272.908 342.422 273.37 343.38C273.807 344.353 274.384 345.259 275.082 346.07C274.909 345.021 274.586 344.002 274.123 343.044C273.677 342.068 273.09 341.162 272.381 340.354H272.425ZM300.838 289.827C301.2 291.924 302.111 293.89 303.48 295.529C303.119 293.432 302.208 291.466 300.838 289.827ZM259.658 284.812C260.716 284.645 261.745 284.33 262.713 283.877C263.679 283.43 264.578 282.855 265.385 282.166C264.32 282.324 263.285 282.639 262.315 283.102C261.337 283.542 260.428 284.118 259.614 284.812H259.658ZM250.92 319.505C251.983 319.34 253.017 319.025 253.99 318.57C254.963 318.133 255.872 317.567 256.691 316.889C255.632 317.049 254.602 317.364 253.636 317.824C252.656 318.256 251.741 318.822 250.92 319.505ZM255.525 358.19L257.223 358.088L257.872 357.81C258.848 357.371 259.762 356.805 260.588 356.129C259.528 356.287 258.498 356.602 257.533 357.064C256.829 357.376 256.157 357.753 255.525 358.19ZM291.348 325.47C292.406 325.299 293.435 324.979 294.403 324.52C295.386 324.094 296.301 323.528 297.119 322.839C296.056 323.004 295.022 323.319 294.049 323.775C293.07 324.225 292.16 324.811 291.348 325.514V325.47ZM259.614 254.783C260.672 254.616 261.7 254.301 262.669 253.847C263.651 253.419 264.566 252.853 265.385 252.166C264.326 252.329 263.297 252.644 262.33 253.101C261.345 253.543 260.43 254.124 259.614 254.827V254.783ZM251.023 259.827C250.403 260.69 249.906 261.635 249.547 262.634C249.159 263.622 248.921 264.661 248.839 265.719C249.462 264.857 249.959 263.911 250.315 262.911C250.699 261.937 250.937 260.913 251.023 259.871V259.827ZM238.182 304.14C237.559 305.002 237.062 305.947 236.706 306.947C236.315 307.94 236.071 308.984 235.983 310.046C236.609 309.186 237.106 308.241 237.459 307.239C237.839 306.258 238.083 305.23 238.182 304.184V304.14ZM239.274 344.052C238.656 344.918 238.16 345.862 237.798 346.86C237.412 347.853 237.173 348.897 237.09 349.959C237.71 349.095 238.207 348.151 238.566 347.152C238.948 346.172 239.187 345.143 239.274 344.096V344.052ZM284.868 285.456C284.242 286.316 283.745 287.261 283.392 288.263C282.999 289.25 282.756 290.29 282.669 291.347C283.298 290.489 283.795 289.543 284.145 288.54C284.531 287.551 284.774 286.512 284.868 285.456ZM270.89 321.304C270.27 322.167 269.773 323.112 269.414 324.111C269.028 325.105 268.789 326.149 268.706 327.21C269.326 326.347 269.823 325.402 270.182 324.403C270.568 323.409 270.807 322.365 270.89 321.304ZM308.824 335.924C308.203 336.787 307.706 337.732 307.348 338.731C306.961 339.725 306.722 340.769 306.639 341.83C307.26 340.967 307.756 340.022 308.115 339.023C308.502 338.029 308.74 336.985 308.824 335.924ZM283.097 254.783C282.471 255.643 281.974 256.589 281.621 257.59C281.235 258.579 280.992 259.618 280.898 260.675C281.527 259.816 282.024 258.87 282.374 257.868C282.76 256.878 283.003 255.84 283.097 254.783ZM295.702 275.616C294.833 274.996 293.879 274.504 292.868 274.154C291.863 273.773 290.81 273.532 289.739 273.438C290.607 274.058 291.562 274.55 292.573 274.9C293.577 275.281 294.63 275.522 295.702 275.616ZM257.06 338.117C256.188 337.502 255.235 337.01 254.226 336.655C253.227 336.273 252.179 336.031 251.112 335.938C251.975 336.567 252.931 337.06 253.946 337.4C254.943 337.789 255.992 338.031 257.06 338.117ZM307.938 311.318C306.191 310.1 304.159 309.345 302.034 309.125C302.899 309.751 303.854 310.244 304.868 310.587C305.851 310.974 306.885 311.221 307.938 311.318ZM240.869 279.008C241.621 279.482 242.423 279.874 243.26 280.178C244.257 280.562 245.307 280.799 246.374 280.879C245.504 280.262 244.55 279.77 243.54 279.417C242.705 279.113 241.839 278.897 240.957 278.774C240.922 278.85 240.892 278.928 240.869 279.008ZM286.816 338.117C285.944 337.502 284.991 337.01 283.982 336.655C282.983 336.273 281.935 336.031 280.868 335.938C281.731 336.567 282.687 337.06 283.702 337.4C284.699 337.789 285.748 338.031 286.816 338.117ZM272.381 299.198C271.511 298.581 270.557 298.089 269.547 297.736C268.55 297.352 267.5 297.115 266.433 297.035C267.305 297.649 268.258 298.141 269.267 298.497C270.264 298.881 271.314 299.117 272.381 299.198Z" fill="white"/>
<path d="M286.019 242.341H285.945C286.506 246.625 287.539 256.581 280.676 256.435C277.9 256.143 275.266 255.067 273.089 253.335C270.84 251.75 268.766 249.932 266.905 247.911C264.746 245.711 262.771 243.339 261.001 240.821C260.927 240.718 260.765 240.821 260.839 240.952C262.639 243.467 264.174 246.113 266.226 248.467C268.171 250.76 270.42 252.781 272.912 254.476C275.232 256.257 278.041 257.302 280.971 257.473C282.242 257.445 283.464 256.983 284.429 256.165C285.395 255.347 286.046 254.223 286.27 252.984C286.989 249.463 286.903 245.826 286.019 242.341Z" fill="#263238"/>
<path d="M297.532 348.965L347.17 360.5L373.029 293.087L323.392 281.552L297.532 348.965Z" fill="#A6A6A6"/>
<path d="M299.968 349.535L349.605 361.07L375.48 293.657L325.827 282.122L299.968 349.535Z" fill="#C7C7C7"/>
<path d="M344.971 320.061C344.529 321.326 343.635 322.387 342.457 323.044C341.28 323.701 339.901 323.909 338.58 323.628C337.95 323.504 337.354 323.245 336.836 322.87C336.317 322.495 335.886 322.012 335.575 321.456C335.263 320.899 335.077 320.282 335.03 319.648C334.983 319.013 335.076 318.376 335.303 317.78C335.767 316.537 336.67 315.503 337.845 314.868C339.02 314.234 340.388 314.043 341.694 314.33C342.31 314.458 342.891 314.714 343.399 315.081C343.907 315.449 344.33 315.919 344.64 316.462C344.95 317.004 345.14 317.606 345.197 318.226C345.254 318.847 345.177 319.472 344.971 320.061Z" fill="white"/>
<path d="M251.304 249.11C236.942 268.906 206.064 314.125 215.186 324.564C230.153 341.743 266.728 356.728 278.182 360.178C283.126 361.64 300.824 326.055 296.159 323.131C290.565 319.622 254.743 305.675 254.566 303.964C254.389 302.254 261.09 277.722 263.289 258.511C266.02 234.666 257.296 240.85 251.304 249.11Z" fill="#F7A9A0"/>
<path d="M278.152 320.631C278.152 320.631 293.222 316.245 303.244 313.862C308.809 312.517 318.58 311.07 323.126 311.932C329.93 313.234 357.546 322.985 355.303 329.666C353.281 335.719 330.624 324.359 330.624 324.359C330.624 324.359 354.506 333.818 350.712 340.661C346.919 347.503 323.037 331.289 323.037 331.289C323.037 331.289 347.362 341.523 342.314 348C338.506 352.868 316.056 339.389 316.056 339.389C316.056 339.389 336.897 348.365 333.192 353.526C329.104 359.243 307.584 348.102 307.584 348.102C295.953 359.681 285.857 361.26 278.211 360.178C276.41 359.93 278.152 320.631 278.152 320.631Z" fill="#F7A9A0"/>
<path d="M323.657 321.041C341.783 326.684 348.926 334.944 348.749 334.769C343.2 330.485 333.443 325.821 330.698 324.535C327.953 323.248 326.388 322.371 323.657 321.114C323.539 321.114 323.584 321.026 323.657 321.041Z" fill="#263238"/>
<path d="M317.783 330.295C325.192 332.255 332.19 335.508 338.447 339.9C338.683 340.076 338.55 340.134 338.284 340.003C334.831 338.307 321.178 331.903 317.62 330.383C317.679 330.412 317.724 330.28 317.783 330.295Z" fill="#263238"/>
<path d="M312.174 337.927C317.903 339.56 323.274 342.237 328.011 345.821C328.248 345.997 328.011 346.07 327.775 345.938C322.565 343.205 318.491 341.041 312.1 338.117C311.997 338.073 312.056 337.883 312.174 337.927Z" fill="#263238"/>
<path d="M285.148 317.619L264.971 360.222C264.971 360.222 216.898 334.564 213.311 322.503C209.725 310.441 242.374 257.4 252.307 246.581C262.241 235.762 265.459 240.192 265.178 252.546C264.898 264.9 255.068 303.365 255.348 304.096C255.628 304.827 285.148 317.619 285.148 317.619Z" fill="#455A64"/>
<path d="M250.3 299.71C250.76 300.674 251.078 301.698 251.245 302.751C250.551 301.94 249.979 301.034 249.547 300.061C249.089 299.101 248.771 298.082 248.603 297.035C249.293 297.843 249.864 298.743 250.3 299.71ZM227.584 289.841C227.946 291.938 228.857 293.905 230.226 295.543C230.058 294.495 229.74 293.476 229.282 292.517C228.842 291.548 228.271 290.643 227.584 289.827V289.841ZM234.64 324.929C234.813 325.978 235.136 326.997 235.599 327.956C236.029 328.925 236.601 329.827 237.296 330.631C236.938 328.531 236.021 326.562 234.64 324.929ZM272.381 340.412C272.527 341.312 272.784 342.191 273.148 343.029L273.577 342.123C273.247 341.49 272.846 340.897 272.381 340.354V340.412ZM250.92 319.505C251.983 319.34 253.017 319.025 253.99 318.57C254.963 318.133 255.872 317.567 256.691 316.888C255.631 317.049 254.602 317.364 253.636 317.824C252.655 318.256 251.741 318.822 250.92 319.505ZM258.595 356.684C258.846 356.83 259.082 356.977 259.318 357.093C259.774 356.821 260.204 356.508 260.602 356.158C259.908 356.268 259.229 356.459 258.58 356.728L258.595 356.684ZM259.628 254.827C260.686 254.659 261.715 254.344 262.684 253.891C263.666 253.463 264.581 252.897 265.399 252.21C264.34 252.372 263.311 252.688 262.344 253.145C261.357 253.572 260.437 254.138 259.614 254.827H259.628ZM251.038 259.87C250.417 260.734 249.921 261.679 249.562 262.678C249.174 263.666 248.935 264.705 248.854 265.762C249.477 264.9 249.974 263.955 250.33 262.955C250.713 261.966 250.946 260.927 251.023 259.87H251.038ZM238.197 304.184C237.574 305.046 237.077 305.991 236.721 306.991C236.33 307.984 236.086 309.028 235.998 310.09C236.624 309.23 237.121 308.284 237.474 307.283C237.853 306.287 238.091 305.244 238.182 304.184H238.197ZM221.961 319.944C221.341 320.803 220.844 321.742 220.485 322.736C220.098 323.73 219.86 324.774 219.776 325.836C220.397 324.972 220.894 324.028 221.252 323.029C221.622 322.038 221.846 320.999 221.917 319.944H221.961ZM238.846 344.798C238.964 344.886 239.097 344.959 239.2 345.047C239.261 344.738 239.3 344.425 239.319 344.111C239.133 344.329 238.96 344.559 238.802 344.798H238.846ZM270.934 321.304C270.314 322.167 269.817 323.112 269.458 324.111C269.072 325.104 268.833 326.149 268.75 327.21C269.371 326.347 269.867 325.402 270.226 324.403C270.597 323.407 270.821 322.363 270.89 321.304H270.934ZM257.104 338.117C256.232 337.502 255.279 337.01 254.27 336.655C253.271 336.273 252.223 336.031 251.156 335.938C252.019 336.567 252.975 337.06 253.99 337.4C254.973 337.785 256.007 338.027 257.06 338.117H257.104ZM240.868 279.008C241.621 279.482 242.422 279.874 243.259 280.178C244.257 280.562 245.307 280.799 246.374 280.879C245.504 280.262 244.55 279.77 243.54 279.417C242.705 279.112 241.839 278.897 240.957 278.774C240.922 278.85 240.892 278.928 240.868 279.008ZM216.972 309.271C217.724 309.745 218.526 310.137 219.363 310.441C220.363 310.818 221.411 311.055 222.477 311.143C221.607 310.525 220.653 310.033 219.643 309.681C218.808 309.376 217.942 309.16 217.06 309.038L216.972 309.271Z" fill="white"/>
<path d="M258.876 285.909C259.525 282.985 260.174 280.134 260.78 277.239C261.104 275.777 261.414 274.227 261.754 272.736C261.916 272.049 262.064 271.274 262.226 270.66C262.3 270.324 262.418 269.973 262.477 269.637C262.684 268.365 262.477 269.49 262.831 268.262C262.831 268.175 262.979 268.262 262.964 268.262C262.964 269.066 263.053 268.745 262.964 269.344C262.876 269.944 262.802 270.251 262.728 270.719C262.625 271.42 262.507 272.107 262.403 272.809C262.167 274.271 261.916 275.66 261.636 277.093C261.636 277.283 261.562 277.458 261.518 277.648C261.523 277.6 261.523 277.551 261.518 277.502C262.049 275.952 262.595 274.417 263.156 272.882C263.156 272.882 263.274 272.882 263.259 272.882C262.89 274.476 262.462 276.04 261.946 277.59C261.65 278.496 261.296 279.374 260.927 280.251C260.558 282.151 260.189 284.052 259.776 285.938C258.536 291.786 257.237 297.722 255.525 303.482C258.034 304.622 260.602 305.646 263.112 306.801C265.621 307.956 268.145 309.125 270.654 310.309C273.163 311.494 275.672 312.663 278.152 313.877C279.348 314.462 280.514 315.076 281.695 315.675C282.875 316.274 284.189 317.137 285.488 317.722C285.621 317.722 285.488 317.97 285.37 317.912C284.027 317.298 282.595 316.859 281.222 316.274C279.85 315.69 278.816 315.251 277.636 314.725C275.097 313.599 272.573 312.429 270.064 311.26C267.554 310.09 265.03 308.935 262.521 307.751C260.012 306.567 257.591 305.236 255.141 304.052C255.103 304.034 255.07 304.008 255.044 303.975C255.019 303.942 255.001 303.903 254.994 303.862C254.937 303.828 254.893 303.777 254.867 303.717C254.84 303.657 254.833 303.59 254.846 303.526C256.042 297.649 257.547 291.801 258.876 285.909Z" fill="#263238"/>
<path d="M265.09 334.433C266.566 331.348 272.691 319.038 274.433 316.099C274.433 316.099 274.551 316.099 274.536 316.099C273.414 319.228 267.761 331.538 266.27 334.637C263.459 340.899 260.306 347.005 256.824 352.927C256.824 353.029 256.558 352.927 256.617 352.854C258.964 346.494 262.138 340.514 265.09 334.433Z" fill="#263238"/>
<path d="M230.374 339.184C231.481 339.813 232.514 340.646 233.562 341.304L236.824 343.526C238.949 344.988 241.09 346.523 243.348 347.781C243.481 347.781 243.348 348.044 243.23 347.971C240.942 346.655 238.595 345.456 236.366 344.023C234.156 342.695 232.106 341.12 230.256 339.33C230.256 339.184 230.256 339.096 230.374 339.184Z" fill="#263238"/>
<path d="M280.735 251.844C275.85 252.663 267.082 244.183 264.219 238.087C264.027 237.663 264.942 233.452 265.798 228.291C266.3 225.148 266.802 221.639 267.008 218.408L287.156 224.666C285.719 228.631 284.777 232.755 284.351 236.946C284.313 237.394 284.313 237.844 284.351 238.291C284.351 238.291 284.351 238.423 284.351 238.511C284.661 241.055 285.444 251.055 280.735 251.844Z" fill="#F7A9A0"/>
<path d="M284.396 238.306C284.396 238.306 284.396 238.438 284.396 238.511C283.698 238.569 282.997 238.569 282.3 238.511C270.492 237.473 268.632 222.94 268.352 218.861L273.385 220.426L287.141 224.695C285.704 228.659 284.767 232.784 284.351 236.976C284.329 237.42 284.344 237.865 284.396 238.306Z" fill="#263238"/>
<path d="M288.086 185.572C288.086 185.572 295.377 187.385 297.68 194.11C299.982 200.835 299.48 208.32 298.934 208.73C298.388 209.139 288.086 185.572 288.086 185.572Z" fill="#263238"/>
<path d="M263.289 198.832C262.005 206.259 268.44 226.435 274.167 230.397C282.462 236.142 294.728 235.265 299.259 225.689C303.687 216.405 294.831 190.25 288.588 186.785C279.407 181.654 265.208 187.838 263.289 198.832Z" fill="#F7A9A0"/>
<path d="M285.532 209.651C285.532 209.651 285.444 209.738 285.532 209.797C286.004 211.142 286.314 212.721 285.222 213.598C285.222 213.598 285.222 213.7 285.222 213.671C286.624 212.999 286.196 210.85 285.532 209.651Z" fill="#263238"/>
<path d="M283.864 208.598C281.591 209.124 282.801 213.554 284.897 213.087C286.993 212.619 285.754 208.174 283.864 208.598Z" fill="#263238"/>
<path d="M293.34 207.297C293.34 207.297 293.473 207.297 293.488 207.385C293.813 208.847 294.433 210.309 295.805 210.426C295.805 210.426 295.805 210.426 295.805 210.513C294.226 210.703 293.429 208.657 293.34 207.297Z" fill="#263238"/>
<path d="M294.196 205.528C296.381 204.768 297.768 209.154 295.672 209.914C293.576 210.674 292.366 206.142 294.196 205.528Z" fill="#263238"/>
<path d="M281.532 207.048C282.108 206.727 282.58 206.347 283.111 205.981C283.643 205.616 284.233 205.294 284.499 204.519C284.554 204.312 284.539 204.093 284.457 203.895C284.374 203.696 284.228 203.531 284.041 203.423C283.636 203.269 283.198 203.225 282.77 203.294C282.342 203.364 281.94 203.544 281.606 203.817C280.844 204.269 280.277 204.982 280.012 205.82C279.952 206.02 279.953 206.232 280.015 206.43C280.077 206.629 280.196 206.805 280.359 206.936C280.521 207.068 280.72 207.148 280.928 207.168C281.137 207.188 281.347 207.147 281.532 207.048Z" fill="#263238"/>
<path d="M295.333 202.823C294.694 202.86 294.053 202.86 293.414 202.823C292.743 202.923 292.058 202.799 291.466 202.472C291.301 202.335 291.186 202.146 291.141 201.937C291.096 201.728 291.121 201.51 291.215 201.317C291.457 200.959 291.791 200.672 292.183 200.484C292.575 200.297 293.01 200.216 293.444 200.25C294.33 200.192 295.207 200.457 295.908 200.996C296.066 201.127 296.182 201.302 296.239 201.499C296.297 201.695 296.296 201.904 296.234 202.099C296.173 202.294 296.054 202.467 295.894 202.596C295.734 202.725 295.538 202.804 295.333 202.823Z" fill="#263238"/>
<path d="M287.038 222.385C287.429 222.704 287.919 222.879 288.425 222.882C288.966 222.744 289.47 222.489 289.901 222.136C289.901 222.136 289.99 222.136 289.901 222.136C289.774 222.459 289.562 222.742 289.287 222.955C289.012 223.169 288.683 223.305 288.337 223.35C288.024 223.372 287.712 223.294 287.447 223.128C287.181 222.963 286.976 222.718 286.861 222.429C286.875 222.414 286.979 222.356 287.038 222.385Z" fill="#263238"/>
<path d="M287.377 217.838C287.876 218.291 288.464 218.636 289.104 218.852C289.744 219.069 290.423 219.151 291.097 219.095C291.688 219.05 292.269 218.923 292.824 218.715C292.934 218.689 293.039 218.645 293.134 218.584L293.429 218.467C293.498 218.433 293.555 218.377 293.589 218.309C293.624 218.24 293.635 218.162 293.621 218.087V217.94V217.823C293.37 216.756 292.824 215.163 292.824 215.163C293.266 215.25 295.495 215.616 295.318 215.075C293.902 210.328 291.997 205.738 289.635 201.376C289.617 201.353 289.592 201.336 289.563 201.329C289.535 201.322 289.504 201.324 289.477 201.336C289.45 201.348 289.427 201.368 289.413 201.394C289.399 201.42 289.394 201.449 289.399 201.478C290.683 205.864 292.735 210.002 294.108 214.402C293.309 214.259 292.494 214.229 291.687 214.315C291.554 214.402 292.794 217.356 292.868 217.853C292.018 218.178 291.11 218.329 290.199 218.296C289.288 218.264 288.393 218.048 287.569 217.663C287.348 217.663 287.259 217.838 287.377 217.838Z" fill="#263238"/>
<path d="M292.041 218.379C291.666 219.294 291.056 220.095 290.27 220.704C289.84 221.013 289.326 221.187 288.794 221.201C287.599 221.201 287.318 220.206 287.318 219.285C287.304 218.795 287.349 218.304 287.451 217.823C288.885 218.478 290.49 218.672 292.041 218.379Z" fill="#263238"/>
<path d="M290.27 220.762C289.84 221.072 289.326 221.245 288.794 221.259C287.599 221.259 287.318 220.265 287.318 219.344C287.899 219.227 288.503 219.302 289.036 219.558C289.57 219.814 290.003 220.237 290.27 220.762Z" fill="#FF98B9"/>
<path d="M268.13 217.838C270.595 217.765 270.89 210.279 270.743 207.487C270.61 205.031 268.927 197.648 268.868 197.136C268.809 196.624 280.676 200.192 285.783 196.683C290.89 193.174 292.883 186.931 292.159 184.578C291.436 182.224 282.462 178.73 276.337 180.367C270.211 182.004 264.632 192.414 264.632 192.414C265.242 190.993 265.736 189.527 266.108 188.028C265.131 188.616 264.316 189.433 263.734 190.407C263.153 191.381 262.822 192.482 262.772 193.613C262.772 193.613 262.374 189.914 262.049 189.943C261.724 189.972 259.717 193.949 261.163 195.952C261.163 195.952 258.699 200.133 259.496 203.54C260.293 206.946 265.252 217.911 268.13 217.838Z" fill="#263238"/>
<path d="M289.37 194.183C288.007 195.624 286.435 196.855 284.706 197.838C282.701 198.708 280.511 199.075 278.329 198.905C276.151 198.8 274.003 198.35 271.968 197.575C270.167 196.902 268.455 195.937 266.61 195.411C266.152 195.279 265.901 195.966 266.241 196.23C269.933 198.899 274.393 200.324 278.964 200.294C281.084 200.274 283.162 199.708 284.994 198.652C286.826 197.596 288.349 196.086 289.414 194.271C289.414 194.271 289.385 194.168 289.37 194.183Z" fill="#263238"/>
<path d="M269.901 215.075C269.901 215.075 264.204 209.066 261.4 211.215C258.595 213.364 263.569 222.458 267.304 223.247C267.781 223.384 268.282 223.423 268.776 223.362C269.269 223.302 269.745 223.144 270.175 222.896C270.606 222.649 270.981 222.319 271.279 221.924C271.577 221.53 271.791 221.08 271.909 220.601L269.901 215.075Z" fill="#F7A9A0"/>
<path d="M284.499 238.16L279.51 250.09L264.647 234.753L260.337 239.563C260.337 239.563 274.757 263.818 274.861 262.736L279.968 252.502L287.082 259.812L286.698 241.771L284.499 238.16Z" fill="white"/>
<path d="M287.407 250.806C287.244 247.882 287.156 244.827 286.861 241.859C286.861 241.742 286.684 241.698 286.654 241.859C286.019 244.783 286.654 256.099 286.654 258.832C286.359 258.525 280.056 252.444 279.997 252.531C278.89 254.169 275.156 261.64 274.89 262.327C272.617 258.467 263.865 244.461 261.149 240.821C261.143 240.807 261.134 240.795 261.124 240.786C261.113 240.776 261.1 240.768 261.086 240.764C261.072 240.759 261.058 240.758 261.043 240.759C261.028 240.761 261.014 240.765 261.002 240.772C260.989 240.78 260.978 240.79 260.97 240.802C260.961 240.813 260.955 240.827 260.952 240.841C260.95 240.855 260.95 240.87 260.953 240.884C260.956 240.898 260.963 240.911 260.972 240.923C262.979 244.973 274.551 263.833 274.743 263.789C276.709 260.263 278.488 256.637 280.071 252.926C281.134 254.256 287.451 261.113 287.451 260.66C287.616 257.377 287.601 254.088 287.407 250.806Z" fill="#263238"/>
<path opacity="0.5" d="M593.193 201.288C594.531 192.097 588.095 183.572 578.817 182.246C569.538 180.92 560.931 187.295 559.593 196.486C558.254 205.676 564.69 214.201 573.969 215.527C583.247 216.853 591.854 210.478 593.193 201.288Z" fill="#230067"/>
<path d="M584.335 206.757C588.728 202.407 588.728 195.353 584.335 191.002C579.943 186.652 572.822 186.652 568.429 191.002C564.037 195.353 564.037 202.407 568.429 206.757C572.822 211.108 579.943 211.108 584.335 206.757Z" fill="#230067"/>
<path opacity="0.5" d="M421.564 456.69C423.06 447.523 416.77 438.891 407.516 437.41C398.261 435.928 389.547 442.159 388.051 451.325C386.556 460.492 392.845 469.124 402.1 470.605C411.354 472.087 420.069 465.856 421.564 456.69Z" fill="#230067"/>
<path d="M415.791 456.602C417.213 450.613 413.465 444.616 407.418 443.207C401.372 441.797 395.317 445.51 393.894 451.499C392.472 457.488 396.22 463.486 402.267 464.895C408.313 466.304 414.368 462.591 415.791 456.602Z" fill="#230067"/>
<path opacity="0.5" d="M444.713 187.46C446.808 174.603 437.984 162.497 425.003 160.421C412.023 158.346 399.801 167.086 397.706 179.944C395.61 192.801 404.434 204.907 417.415 206.983C430.396 209.058 442.617 200.318 444.713 187.46Z" fill="#230067"/>
<path d="M436.763 186.28C438.2 177.775 432.404 169.726 423.817 168.303C415.231 166.88 407.105 172.621 405.668 181.126C404.231 189.631 410.027 197.68 418.614 199.103C427.201 200.526 435.326 194.785 436.763 186.28Z" fill="#230067"/>
<path opacity="0.5" d="M288.765 550.034C301.913 550.034 312.573 539.476 312.573 526.452C312.573 513.428 301.913 502.87 288.765 502.87C275.616 502.87 264.957 513.428 264.957 526.452C264.957 539.476 275.616 550.034 288.765 550.034Z" fill="#230067"/>
<path d="M288.765 542.066C297.471 542.066 304.528 535.075 304.528 526.452C304.528 517.828 297.471 510.837 288.765 510.837C280.059 510.837 273.001 517.828 273.001 526.452C273.001 535.075 280.059 542.066 288.765 542.066Z" fill="#230067"/>
<path opacity="0.5" d="M189.976 395.456C199.35 395.456 206.95 387.929 206.95 378.643C206.95 369.358 199.35 361.83 189.976 361.83C180.601 361.83 173.002 369.358 173.002 378.643C173.002 387.929 180.601 395.456 189.976 395.456Z" fill="#230067"/>
<path d="M189.976 389.784C196.188 389.784 201.223 384.796 201.223 378.643C201.223 372.491 196.188 367.503 189.976 367.503C183.764 367.503 178.729 372.491 178.729 378.643C178.729 384.796 183.764 389.784 189.976 389.784Z" fill="#230067"/>
<path opacity="0.5" d="M186.507 173.247C195.882 173.247 203.481 165.72 203.481 156.434C203.481 147.148 195.882 139.621 186.507 139.621C177.133 139.621 169.533 147.148 169.533 156.434C169.533 165.72 177.133 173.247 186.507 173.247Z" fill="#230067"/>
<path d="M186.507 167.574C192.719 167.574 197.754 162.587 197.754 156.434C197.754 150.281 192.719 145.294 186.507 145.294C180.296 145.294 175.26 150.281 175.26 156.434C175.26 162.587 180.296 167.574 186.507 167.574Z" fill="#230067"/>
<path opacity="0.5" d="M565.116 439.39C572.575 439.39 578.622 433.4 578.622 426.012C578.622 418.624 572.575 412.635 565.116 412.635C557.657 412.635 551.611 418.624 551.611 426.012C551.611 433.4 557.657 439.39 565.116 439.39Z" fill="#230067"/>
<path d="M574.061 426.012C574.061 427.765 573.536 429.477 572.553 430.934C571.57 432.391 570.174 433.527 568.539 434.198C566.905 434.868 565.106 435.044 563.371 434.702C561.636 434.36 560.042 433.516 558.791 432.277C557.54 431.038 556.689 429.459 556.344 427.741C555.998 426.022 556.176 424.241 556.852 422.622C557.529 421.003 558.676 419.619 560.147 418.646C561.618 417.672 563.347 417.152 565.116 417.152C567.488 417.152 569.763 418.086 571.441 419.747C573.118 421.409 574.061 423.662 574.061 426.012Z" fill="#230067"/>
<path opacity="0.5" d="M149.563 214.037C149.563 215.789 149.039 217.502 148.056 218.959C147.073 220.416 145.676 221.552 144.042 222.222C142.407 222.893 140.609 223.068 138.874 222.726C137.139 222.384 135.545 221.541 134.294 220.302C133.043 219.063 132.191 217.484 131.846 215.765C131.501 214.047 131.678 212.265 132.355 210.646C133.032 209.027 134.178 207.644 135.649 206.67C137.12 205.697 138.85 205.177 140.619 205.177C142.991 205.177 145.266 206.111 146.943 207.772C148.621 209.434 149.563 211.687 149.563 214.037Z" fill="#230067"/>
<path d="M140.618 219.899C143.887 219.899 146.537 217.275 146.537 214.037C146.537 210.799 143.887 208.174 140.618 208.174C137.35 208.174 134.7 210.799 134.7 214.037C134.7 217.275 137.35 219.899 140.618 219.899Z" fill="#230067"/>
<path opacity="0.5" d="M563.079 344.798C563.082 346.554 562.559 348.271 561.577 349.732C560.594 351.194 559.196 352.333 557.559 353.007C555.922 353.681 554.12 353.859 552.381 353.518C550.642 353.178 549.044 352.334 547.79 351.093C546.536 349.852 545.681 348.271 545.334 346.549C544.987 344.828 545.164 343.042 545.841 341.42C546.519 339.798 547.667 338.411 549.141 337.435C550.615 336.459 552.347 335.938 554.12 335.938C555.296 335.936 556.461 336.164 557.547 336.609C558.634 337.053 559.622 337.705 560.454 338.528C561.286 339.351 561.947 340.328 562.397 341.404C562.847 342.48 563.079 343.633 563.079 344.798Z" fill="#230067"/>
<path d="M560.053 344.798C560.053 345.955 559.707 347.085 559.058 348.047C558.41 349.009 557.488 349.758 556.409 350.201C555.33 350.644 554.143 350.759 552.998 350.534C551.852 350.308 550.8 349.751 549.975 348.933C549.149 348.115 548.587 347.073 548.359 345.939C548.131 344.805 548.248 343.629 548.695 342.56C549.142 341.492 549.898 340.578 550.869 339.936C551.84 339.293 552.982 338.95 554.149 338.95C555.715 338.95 557.217 339.566 558.324 340.663C559.431 341.76 560.053 343.247 560.053 344.798Z" fill="#230067"/>
<path opacity="0.5" d="M445.014 365.471C449.954 365.471 453.958 361.504 453.958 356.611C453.958 351.718 449.954 347.751 445.014 347.751C440.074 347.751 436.069 351.718 436.069 356.611C436.069 361.504 440.074 365.471 445.014 365.471Z" fill="#230067"/>
<path d="M445.014 362.474C448.283 362.474 450.933 359.849 450.933 356.611C450.933 353.373 448.283 350.748 445.014 350.748C441.745 350.748 439.095 353.373 439.095 356.611C439.095 359.849 441.745 362.474 445.014 362.474Z" fill="#230067"/>
<path opacity="0.5" d="M184.78 466.115C184.78 467.867 184.256 469.58 183.273 471.037C182.29 472.494 180.893 473.63 179.259 474.3C177.624 474.971 175.826 475.146 174.091 474.804C172.356 474.462 170.762 473.619 169.511 472.38C168.26 471.141 167.408 469.562 167.063 467.843C166.718 466.125 166.895 464.343 167.572 462.724C168.249 461.105 169.396 459.722 170.867 458.748C172.338 457.775 174.067 457.255 175.836 457.255C178.208 457.255 180.483 458.189 182.161 459.85C183.838 461.512 184.78 463.765 184.78 466.115Z" fill="#230067"/>
<path d="M181.755 466.115C181.755 467.271 181.409 468.402 180.76 469.364C180.111 470.325 179.189 471.075 178.11 471.518C177.031 471.96 175.844 472.076 174.699 471.85C173.554 471.625 172.502 471.068 171.676 470.25C170.85 469.432 170.288 468.39 170.06 467.256C169.832 466.121 169.949 464.945 170.396 463.877C170.843 462.808 171.6 461.895 172.571 461.252C173.542 460.61 174.683 460.267 175.851 460.267C177.417 460.267 178.918 460.883 180.026 461.98C181.133 463.076 181.755 464.564 181.755 466.115Z" fill="#230067"/>
<path opacity="0.5" d="M367.436 119.723C367.433 121.475 366.906 123.186 365.921 124.641C364.936 126.096 363.538 127.23 361.904 127.898C360.269 128.566 358.471 128.74 356.737 128.396C355.003 128.053 353.41 127.208 352.161 125.968C350.912 124.729 350.061 123.15 349.717 121.432C349.373 119.713 349.551 117.933 350.229 116.315C350.906 114.697 352.053 113.314 353.523 112.341C354.994 111.368 356.723 110.849 358.491 110.849C359.667 110.849 360.831 111.079 361.917 111.525C363.003 111.971 363.99 112.625 364.821 113.449C365.652 114.273 366.31 115.252 366.759 116.328C367.208 117.405 367.437 118.559 367.436 119.723Z" fill="#230067"/>
<path d="M364.424 119.723C364.424 120.88 364.078 122.011 363.429 122.972C362.781 123.934 361.859 124.683 360.78 125.126C359.701 125.569 358.514 125.685 357.369 125.459C356.223 125.233 355.171 124.676 354.346 123.858C353.52 123.041 352.958 121.999 352.73 120.864C352.502 119.73 352.619 118.554 353.066 117.485C353.513 116.417 354.269 115.503 355.24 114.861C356.211 114.218 357.353 113.875 358.52 113.875C360.086 113.875 361.588 114.491 362.695 115.588C363.802 116.685 364.424 118.172 364.424 119.723Z" fill="#230067"/>
<path opacity="0.5" d="M448.04 78.5679C448.04 80.3201 447.515 82.0331 446.532 83.49C445.549 84.947 444.153 86.0826 442.518 86.7532C440.884 87.4237 439.085 87.5992 437.35 87.2573C435.615 86.9155 434.021 86.0717 432.77 84.8326C431.52 83.5936 430.668 82.0149 430.323 80.2963C429.977 78.5777 430.155 76.7963 430.832 75.1774C431.508 73.5585 432.655 72.1748 434.126 71.2013C435.597 70.2277 437.326 69.7081 439.095 69.7081C441.467 69.7081 443.743 70.6416 445.42 72.3031C447.097 73.9646 448.04 76.2181 448.04 78.5679Z" fill="#230067"/>
<path d="M445.014 78.5678C445.014 79.7245 444.668 80.8551 444.019 81.8168C443.37 82.7785 442.448 83.5281 441.369 83.9707C440.291 84.4133 439.103 84.5291 437.958 84.3035C436.813 84.0778 435.761 83.5209 434.935 82.703C434.11 81.8852 433.547 80.8431 433.32 79.7087C433.092 78.5743 433.209 77.3985 433.655 76.3299C434.102 75.2613 434.859 74.348 435.83 73.7054C436.801 73.0628 437.942 72.7198 439.11 72.7198C440.676 72.7198 442.178 73.336 443.285 74.4327C444.392 75.5294 445.014 77.0169 445.014 78.5678Z" fill="#230067"/>
<path d="M520.438 230.119C520.441 230.941 520.197 231.745 519.738 232.43C519.28 233.114 518.626 233.649 517.86 233.965C517.094 234.282 516.251 234.366 515.437 234.207C514.623 234.049 513.875 233.655 513.287 233.075C512.699 232.494 512.299 231.755 512.136 230.949C511.973 230.143 512.055 229.307 512.372 228.548C512.688 227.788 513.226 227.139 513.915 226.682C514.605 226.225 515.416 225.981 516.246 225.981C517.355 225.981 518.419 226.417 519.205 227.192C519.99 227.968 520.434 229.02 520.438 230.119Z" fill="#230067"/>
<path d="M235.762 466.115C235.762 466.936 235.516 467.739 235.055 468.422C234.595 469.104 233.94 469.637 233.174 469.951C232.408 470.265 231.565 470.347 230.752 470.187C229.939 470.027 229.192 469.631 228.606 469.051C228.019 468.47 227.62 467.73 227.458 466.925C227.297 466.119 227.38 465.285 227.697 464.526C228.014 463.767 228.552 463.119 229.241 462.662C229.93 462.206 230.741 461.963 231.57 461.963C232.682 461.963 233.748 462.4 234.534 463.179C235.32 463.958 235.762 465.014 235.762 466.115Z" fill="#230067"/>
<path d="M231.57 119.723C231.57 120.545 231.324 121.348 230.862 122.031C230.401 122.715 229.745 123.247 228.979 123.561C228.212 123.874 227.368 123.956 226.555 123.794C225.741 123.633 224.994 123.236 224.409 122.654C223.823 122.072 223.425 121.331 223.265 120.524C223.105 119.718 223.19 118.882 223.509 118.124C223.829 117.366 224.368 116.718 225.06 116.264C225.751 115.809 226.563 115.568 227.393 115.571C227.942 115.571 228.487 115.679 228.995 115.887C229.502 116.096 229.963 116.402 230.352 116.788C230.74 117.174 231.047 117.632 231.256 118.135C231.465 118.639 231.572 119.179 231.57 119.723Z" fill="#230067"/>
<path d="M175.836 273.979C175.836 274.8 175.59 275.603 175.129 276.286C174.669 276.968 174.014 277.501 173.248 277.815C172.482 278.129 171.639 278.211 170.826 278.051C170.013 277.891 169.266 277.495 168.68 276.915C168.094 276.334 167.694 275.594 167.533 274.789C167.371 273.983 167.454 273.149 167.771 272.39C168.089 271.631 168.626 270.983 169.315 270.526C170.004 270.07 170.815 269.827 171.644 269.827C172.756 269.827 173.822 270.264 174.608 271.043C175.394 271.822 175.836 272.878 175.836 273.979Z" fill="#230067"/>
<path d="M622.621 314.769C622.624 315.59 622.381 316.395 621.922 317.079C621.463 317.764 620.809 318.298 620.044 318.615C619.278 318.931 618.435 319.016 617.62 318.857C616.806 318.699 616.058 318.304 615.47 317.724C614.883 317.144 614.482 316.404 614.319 315.599C614.156 314.793 614.238 313.957 614.555 313.198C614.872 312.438 615.409 311.789 616.099 311.332C616.788 310.875 617.599 310.631 618.429 310.631C619.538 310.631 620.602 311.067 621.388 311.842C622.174 312.618 622.617 313.67 622.621 314.769Z" fill="#230067"/>
<path d="M272.115 336.333C272.115 337.155 271.869 337.958 271.408 338.641C270.947 339.325 270.291 339.857 269.524 340.171C268.757 340.484 267.914 340.566 267.1 340.404C266.287 340.243 265.54 339.846 264.954 339.264C264.369 338.682 263.971 337.941 263.81 337.134C263.65 336.328 263.735 335.492 264.055 334.734C264.375 333.976 264.914 333.328 265.605 332.874C266.297 332.419 267.109 332.178 267.938 332.181C269.047 332.185 270.11 332.624 270.893 333.402C271.676 334.181 272.115 335.234 272.115 336.333Z" fill="#230067"/>
<path d="M119.084 358C121.399 358 123.276 356.141 123.276 353.848C123.276 351.555 121.399 349.696 119.084 349.696C116.769 349.696 114.892 351.555 114.892 353.848C114.892 356.141 116.769 358 119.084 358Z" fill="#230067"/>
<path d="M524.63 507.431C524.63 508.252 524.384 509.055 523.923 509.738C523.462 510.421 522.808 510.953 522.042 511.267C521.276 511.581 520.433 511.663 519.62 511.503C518.807 511.343 518.06 510.948 517.474 510.367C516.887 509.786 516.488 509.046 516.326 508.241C516.165 507.436 516.248 506.601 516.565 505.842C516.882 505.083 517.419 504.435 518.109 503.979C518.798 503.522 519.609 503.279 520.438 503.279C521.549 503.279 522.616 503.716 523.402 504.495C524.188 505.274 524.63 506.33 524.63 507.431Z" fill="#230067"/>
<path d="M373.103 405.851C373.103 406.672 372.858 407.475 372.397 408.158C371.936 408.841 371.282 409.373 370.516 409.687C369.75 410.001 368.907 410.084 368.094 409.923C367.281 409.763 366.534 409.368 365.948 408.787C365.361 408.206 364.962 407.467 364.8 406.661C364.639 405.856 364.722 405.021 365.039 404.262C365.356 403.504 365.893 402.855 366.583 402.399C367.272 401.943 368.083 401.699 368.912 401.699C370.023 401.699 371.09 402.137 371.876 402.915C372.662 403.694 373.103 404.75 373.103 405.851Z" fill="#230067"/>
<path d="M364.675 560.048C364.675 560.87 364.43 561.672 363.969 562.355C363.508 563.038 362.854 563.57 362.088 563.884C361.322 564.199 360.479 564.281 359.666 564.121C358.853 563.96 358.106 563.565 357.52 562.984C356.933 562.404 356.534 561.664 356.372 560.858C356.211 560.053 356.294 559.218 356.611 558.459C356.928 557.701 357.465 557.052 358.155 556.596C358.844 556.14 359.655 555.896 360.484 555.896C361.595 555.896 362.662 556.334 363.448 557.112C364.234 557.891 364.675 558.947 364.675 560.048Z" fill="#230067"/>
<path d="M324.159 194.724C324.162 195.546 323.919 196.35 323.46 197.035C323.001 197.719 322.347 198.254 321.582 198.57C320.816 198.887 319.973 198.971 319.158 198.812C318.344 198.654 317.596 198.26 317.008 197.68C316.421 197.099 316.02 196.36 315.857 195.554C315.694 194.748 315.776 193.912 316.093 193.153C316.41 192.393 316.947 191.744 317.637 191.287C318.326 190.83 319.138 190.586 319.967 190.586C321.076 190.586 322.14 191.022 322.926 191.797C323.712 192.573 324.155 193.625 324.159 194.724Z" fill="#230067"/>
<path d="M325.487 67.7783C325.487 68.6002 325.241 69.4035 324.78 70.0866C324.319 70.7697 323.663 71.3019 322.896 71.6157C322.129 71.9296 321.286 72.0109 320.472 71.8495C319.659 71.6881 318.912 71.2912 318.326 70.7091C317.741 70.1269 317.343 69.3857 317.183 68.5794C317.022 67.773 317.108 66.9377 317.427 66.1792C317.747 65.4208 318.286 64.7734 318.977 64.3189C319.669 63.8644 320.481 63.6234 321.31 63.6262C321.86 63.6262 322.405 63.7337 322.912 63.9426C323.42 64.1514 323.881 64.4575 324.269 64.8432C324.657 65.229 324.965 65.6868 325.174 66.1905C325.383 66.6942 325.489 67.2338 325.487 67.7783Z" fill="#230067"/>
<path d="M518.371 132.72C518.389 133.545 518.158 134.356 517.708 135.051C517.258 135.745 516.61 136.291 515.846 136.618C515.082 136.946 514.236 137.041 513.417 136.891C512.598 136.741 511.843 136.352 511.248 135.775C510.653 135.198 510.245 134.459 510.076 133.651C509.907 132.843 509.984 132.004 510.299 131.24C510.613 130.476 511.15 129.823 511.842 129.362C512.533 128.902 513.347 128.656 514.179 128.656C515.276 128.656 516.329 129.081 517.113 129.841C517.896 130.601 518.348 131.634 518.371 132.72Z" fill="#230067"/>
<path d="M288.735 526.686L288.632 526.569L231.437 466.232L118.892 353.921V353.804L140.427 213.934L186.316 156.332L227.304 119.577L321.399 67.5298L321.502 67.676L358.668 119.606L421.265 183.466L514.253 132.501L514.357 132.603L576.555 198.832L618.636 314.798V314.871L565.308 426.173H565.219L404.911 454.214L288.735 526.686ZM119.276 353.804L231.732 465.983L288.824 526.218L404.837 453.863L565.028 425.837L618.267 314.725L576.245 198.934L514.15 132.954L421.162 183.92L421.059 183.832L358.358 119.884L321.251 68.0122L227.481 119.884L186.64 156.58L140.796 214.11L119.276 353.804Z" fill="#230067"/>
<path d="M520.511 507.665L520.364 507.592L404.719 454.185L368.808 406.012L268.042 336.626L231.614 466.627L231.407 466.188L189.784 378.658L171.452 273.95L227.304 119.504H227.466L344.72 146.2L358.388 119.577H358.52L514.371 132.603V132.764L515.478 184.914L576.422 198.744V199.095L515.714 193.159L516.497 230.207L445.442 356.392L554.371 344.593V344.769L565.308 426.041L520.511 507.665ZM404.955 453.893L520.364 507.182L564.939 425.968L553.972 345.032L444.748 356.86L444.925 356.553L516.128 230.104L515.345 193.116L421.25 183.905L319.716 194.972L319.864 194.68L344.602 146.507L227.511 119.884L171.836 273.993L190.153 378.658L231.481 465.662L267.776 336.099L267.997 336.26L369 405.734L404.955 453.893ZM515.655 192.75L573.515 198.408L515.493 185.25L515.655 192.75ZM344.912 146.566L320.292 194.446L421.191 183.452L515.272 192.662L515.109 185.104L344.912 146.566ZM345.089 146.229L515.124 184.797L514.017 132.896L358.668 119.884L345.089 146.229Z" fill="#230067"/>
<path d="M514.076 132.867L438.992 78.714L439.199 78.4216L514.297 132.574L514.076 132.867Z" fill="#230067"/>
<path d="M360.469 560.253L288.794 526.627L287.481 526.744L288.381 526.422L175.644 466.246L118.951 354.009L118.272 353.76L118.98 353.687L171.437 273.964L140.368 214.022L140.545 213.949L237.001 172.18L227.112 119.328L227.496 119.65L273.06 156.434L320.381 135.966L321.104 67.5298H321.311L439.73 78.3924L439.169 78.6702L358.58 119.884L320.764 136.244L320.144 195.104L319.849 194.87L273.016 156.858L237.415 172.267L268.145 336.435H267.953L119.896 353.95L190.035 378.468L368.867 405.661L445.088 356.348L445.191 356.523L492.984 452.036L564.969 425.881L569.397 337.912L554.209 345.032L554.046 344.71L569.323 337.576L572.275 276.903L515.862 230.119L516.098 229.987L576.526 198.598L572.688 276.654L618.754 314.812L618.503 314.944L569.736 337.722L565.308 426.115H565.19L493.117 452.314L520.718 507.519H520.482L360.469 560.253ZM289.473 526.627L360.498 559.917L518.917 507.796L289.473 526.627ZM175.984 466.042L288.779 526.32L492.6 452.24L444.955 356.874L369 406.041H368.926L189.991 378.848L119.453 354.184L175.984 466.042ZM492.763 452.562L290.108 526.218L520.157 507.314L492.763 452.562ZM140.87 214.256L171.866 274.125V274.213L119.453 353.629L267.717 336.172L237.075 172.516L140.87 214.256ZM572.688 277.122L569.736 337.327L618.119 314.725L572.688 277.122ZM516.6 230.163L572.349 276.318L576.186 199.139L516.6 230.163ZM273.4 156.756L319.79 194.344L320.395 136.405L273.4 156.756ZM227.644 120.206L237.341 171.99L272.676 156.697L227.644 120.206ZM321.473 67.9976L320.764 135.878L358.402 119.577L438.431 78.7287L321.473 67.9976Z" fill="#230067"/>
<path d="M421.358 183.451L421.036 183.628L447.883 231.405L448.205 231.227L421.358 183.451Z" fill="#230067"/>
<path d="M565.087 426.319L532.865 403.541L533.072 403.249L565.293 426.027L565.087 426.319Z" fill="#230067"/>
<path d="M302.588 457.218L289.898 526.111L290.261 526.176L302.951 457.284L302.588 457.218Z" fill="#230067"/>
<path d="M347.17 457.065H258.595V457.43H347.17V457.065Z" fill="#230067"/>
<path d="M482.386 244.329C482.391 249.508 480.853 254.574 477.965 258.891C475.077 263.208 470.967 266.585 466.15 268.599L455.818 244.329H482.386Z" fill="#230067"/>
<path d="M452.379 242.531L462.785 266.786C461.973 267.107 461.161 267.414 460.335 267.663C456.354 268.893 452.138 269.177 448.026 268.494C443.914 267.81 440.022 266.177 436.665 263.728C433.308 261.278 430.58 258.08 428.703 254.393C426.825 250.705 425.849 246.632 425.855 242.502C425.858 239.845 426.261 237.204 427.051 234.666C428.331 230.592 430.593 226.888 433.64 223.872C436.687 220.857 440.428 218.62 444.542 217.356C447.876 216.321 451.384 215.948 454.865 216.259C458.345 216.569 461.729 217.557 464.824 219.165C467.918 220.773 470.662 222.97 472.898 225.629C475.134 228.289 476.819 231.36 477.855 234.666C478.638 237.206 479.041 239.846 479.051 242.502L452.379 242.531Z" fill="#230067"/>
<path d="M452.379 242.531L462.785 266.786C461.973 267.107 461.161 267.414 460.335 267.663C455.191 269.242 449.685 269.242 444.542 267.663C440.185 266.306 436.254 263.86 433.13 260.56C430.006 257.26 427.793 253.218 426.706 248.824C425.619 244.43 425.693 239.833 426.922 235.476C428.152 231.119 430.494 227.149 433.724 223.95C436.953 220.751 440.961 218.431 445.36 217.213C449.758 215.996 454.4 215.922 458.835 216.999C463.271 218.076 467.352 220.268 470.684 223.362C474.015 226.457 476.485 230.35 477.855 234.666C478.638 237.206 479.041 239.846 479.051 242.502L452.379 242.531Z" fill="#A6A6A6"/>
<path d="M452.394 242.531L435.051 262.502C431.682 259.623 429.098 255.951 427.535 251.825C425.971 247.698 425.479 243.249 426.104 238.885C426.728 234.521 428.45 230.383 431.109 226.849C433.769 223.316 437.282 220.501 441.326 218.662C445.37 216.824 449.815 216.021 454.254 216.327C458.693 216.633 462.983 218.038 466.731 220.414C470.479 222.79 473.564 226.06 475.703 229.925C477.843 233.789 478.969 238.124 478.977 242.531H452.394Z" fill="#455A64"/>
<path d="M495.892 378.117H490.076V407.386H495.892V378.117Z" fill="#230067"/>
<path d="M505.884 382.986H500.069V407.401H505.884V382.986Z" fill="#230067"/>
<path d="M515.892 391.86H510.076V407.401H515.892V391.86Z" fill="#230067"/>
<path d="M525.884 382.562H520.069V407.401H525.884V382.562Z" fill="#230067"/>
<path d="M535.876 386.641H530.061V407.401H535.876V386.641Z" fill="#230067"/>
<path d="M545.869 374.038H540.054V407.386H545.869V374.038Z" fill="#230067"/>
<path d="M486.711 372.006V380.851V389.696V407.401L486.563 407.255C500.689 407.255 514.814 407.255 528.939 407.255H540.747L551.212 407.342H540.747H528.939C514.814 407.342 500.689 407.342 486.563 407.342H486.416V407.211V389.506V380.661L486.711 372.006Z" fill="#A6A6A6"/>
<path d="M485.427 374.037C486.269 373.824 487.153 373.824 487.995 374.037C487.153 374.25 486.269 374.25 485.427 374.037Z" fill="#A6A6A6"/>
<path d="M485.427 377.546C485.847 377.443 486.278 377.389 486.711 377.386C487.145 377.382 487.577 377.436 487.995 377.546C487.153 377.759 486.269 377.759 485.427 377.546Z" fill="#A6A6A6"/>
<path d="M485.427 381.055C486.269 380.842 487.153 380.842 487.995 381.055C487.155 381.288 486.267 381.288 485.427 381.055Z" fill="#A6A6A6"/>
<path d="M485.427 384.578C486.267 384.345 487.155 384.345 487.995 384.578C487.153 384.791 486.269 384.791 485.427 384.578Z" fill="#A6A6A6"/>
<path d="M485.427 388.087C486.269 387.874 487.153 387.874 487.995 388.087C487.153 388.3 486.269 388.3 485.427 388.087Z" fill="#A6A6A6"/>
<path d="M485.427 391.596C486.269 391.383 487.153 391.383 487.995 391.596C487.153 391.809 486.269 391.809 485.427 391.596Z" fill="#A6A6A6"/>
<path d="M485.427 395.105C485.847 395.001 486.278 394.948 486.711 394.945C487.145 394.933 487.578 394.987 487.995 395.105C487.153 395.318 486.269 395.318 485.427 395.105Z" fill="#A6A6A6"/>
<path d="M485.427 398.613C486.269 398.4 487.153 398.4 487.995 398.613C487.155 398.846 486.267 398.846 485.427 398.613Z" fill="#A6A6A6"/>
<path d="M485.427 402.137C486.267 401.904 487.155 401.904 487.995 402.137C487.153 402.35 486.269 402.35 485.427 402.137Z" fill="#A6A6A6"/>
<path d="M274.374 457.255C274.367 461.041 272.97 464.695 270.444 467.536C267.919 470.378 264.436 472.212 260.645 472.698C256.855 473.184 253.015 472.288 249.843 470.176C246.67 468.065 244.381 464.883 243.401 461.224C242.422 457.564 242.82 453.677 244.521 450.287C246.221 446.896 249.108 444.234 252.644 442.796C256.18 441.359 260.123 441.244 263.738 442.473C267.353 443.702 270.394 446.192 272.292 449.477C273.66 451.846 274.377 454.527 274.374 457.255Z" fill="#DBDBDB"/>
<path d="M272.292 449.477L258.595 457.255V441.626C261.374 441.626 264.103 442.351 266.508 443.73C268.913 445.108 270.908 447.091 272.292 449.477Z" fill="#230067"/>
<path d="M269.389 459.009C270.352 453.119 266.312 447.57 260.366 446.616C254.419 445.662 248.817 449.664 247.854 455.554C246.891 461.445 250.931 466.993 256.878 467.947C262.824 468.901 268.426 464.899 269.389 459.009Z" fill="white"/>
<path d="M263.141 454.843H254.064V456.115H263.141V454.843Z" fill="#263238"/>
<path d="M265.385 458.381H251.806V459.653H265.385V458.381Z" fill="#A6A6A6"/>
<path d="M318.506 457.255C318.507 458.019 318.448 458.781 318.329 459.536C317.721 463.509 315.58 467.094 312.359 469.537C309.137 471.98 305.085 473.09 301.053 472.634C297.022 472.179 293.327 470.192 290.743 467.093C288.16 463.994 286.891 460.024 287.202 456.017C287.513 452.01 289.381 448.279 292.412 445.608C295.443 442.936 299.402 441.533 303.456 441.694C307.51 441.854 311.344 443.565 314.15 446.467C316.957 449.369 318.518 453.236 318.506 457.255Z" fill="#DBDBDB"/>
<path d="M318.506 457.255C318.507 458.019 318.448 458.781 318.329 459.536L302.728 457.255V441.626C304.801 441.623 306.854 442.024 308.77 442.808C310.686 443.592 312.427 444.743 313.893 446.195C315.359 447.647 316.521 449.372 317.313 451.27C318.104 453.168 318.51 455.202 318.506 457.255Z" fill="#230067"/>
<path d="M313.361 459.734C314.741 453.926 311.106 448.11 305.242 446.743C299.378 445.376 293.506 448.977 292.126 454.785C290.746 460.594 294.381 466.41 300.245 467.777C306.109 469.144 311.982 465.543 313.361 459.734Z" fill="white"/>
<path d="M307.274 454.843H298.196V456.115H307.274V454.843Z" fill="#263238"/>
<path d="M309.517 458.381H295.938V459.653H309.517V458.381Z" fill="#A6A6A6"/>
<path d="M362.948 457.255C362.951 461.052 361.559 464.721 359.031 467.577C356.504 470.432 353.015 472.28 349.214 472.775C345.413 473.27 341.56 472.378 338.374 470.267C335.187 468.155 332.885 464.968 331.896 461.299C330.908 457.63 331.3 453.73 333 450.327C334.701 446.923 337.593 444.249 341.137 442.802C344.681 441.355 348.636 441.234 352.264 442.462C355.891 443.691 358.944 446.184 360.853 449.477C362.226 451.844 362.948 454.526 362.948 457.255Z" fill="#DBDBDB"/>
<path d="M362.948 457.255C362.956 460.422 361.992 463.516 360.184 466.127C358.375 468.738 355.808 470.743 352.823 471.875L347.17 457.255V441.626C351.353 441.63 355.364 443.278 358.323 446.208C361.281 449.138 362.944 453.111 362.948 457.255Z" fill="#230067"/>
<path d="M358.078 457.255C358.078 459.392 357.438 461.481 356.239 463.258C355.041 465.034 353.337 466.419 351.344 467.237C349.351 468.055 347.158 468.269 345.042 467.852C342.926 467.435 340.982 466.406 339.457 464.895C337.932 463.384 336.893 461.459 336.472 459.363C336.051 457.267 336.267 455.095 337.093 453.121C337.918 451.146 339.316 449.459 341.11 448.272C342.904 447.085 345.013 446.451 347.17 446.451C350.063 446.451 352.837 447.589 354.883 449.615C356.928 451.642 358.078 454.39 358.078 457.255Z" fill="white"/>
<path d="M351.701 454.843H342.624V456.115H351.701V454.843Z" fill="#263238"/>
<path d="M353.96 458.381H340.38V459.653H353.96V458.381Z" fill="#A6A6A6"/>
<path d="M224.618 246.318H230.787V206.683H224.618V246.318Z" fill="#EBEBEB"/>
<path d="M224.618 246.318H230.787V216.201H224.618V246.318Z" fill="#230067"/>
<path d="M215.319 246.318H221.489V206.683H215.319V246.318Z" fill="#EBEBEB"/>
<path d="M215.319 246.318H221.489V220.221H215.319V246.318Z" fill="#455A64"/>
<path d="M206.035 246.318H212.205V206.683H206.035V246.318Z" fill="#EBEBEB"/>
<path d="M206.035 246.318H212.205V234.256H206.035V246.318Z" fill="#230067"/>
<path d="M196.751 246.318H202.92V206.683H196.751V246.318Z" fill="#EBEBEB"/>
<path d="M196.751 246.303H202.92V213.218H196.751V246.303Z" fill="#455A64"/>
<path d="M187.481 246.318H193.651V206.683H187.481V246.318Z" fill="#EBEBEB"/>
<path d="M187.481 246.318H193.651V210.601H187.481V246.318Z" fill="#230067"/>
<path d="M178.198 246.318H184.367V206.683H178.198V246.318Z" fill="#EBEBEB"/>
<path d="M178.198 246.318H184.367V223.686H178.198V246.318Z" fill="#455A64"/>
<path d="M174.08 206.668L174.168 216.581L174.242 226.493L174.301 246.318L174.08 246.098L189.282 246.084L204.485 246.113L219.688 246.186L234.891 246.318L219.688 246.449L204.485 246.522L189.282 246.537H174.08H173.858V246.318L173.932 226.493L173.991 216.581L174.08 206.668Z" fill="#EBEBEB"/>
<path d="M173.194 206.668C173.493 206.593 173.8 206.554 174.109 206.551C174.418 206.553 174.725 206.592 175.024 206.668C174.728 206.757 174.418 206.796 174.109 206.784C173.799 206.796 173.49 206.756 173.194 206.668Z" fill="#EBEBEB"/>
<path d="M173.194 210.601C173.514 210.536 173.841 210.512 174.168 210.528C174.477 210.53 174.784 210.569 175.083 210.644C174.787 210.734 174.478 210.773 174.168 210.761C173.836 210.765 173.506 210.711 173.194 210.601Z" fill="#EBEBEB"/>
<path d="M173.194 214.533C173.492 214.452 173.8 214.413 174.109 214.417C174.418 214.412 174.726 214.451 175.024 214.533C174.726 214.616 174.418 214.655 174.109 214.65C173.8 214.654 173.492 214.615 173.194 214.533Z" fill="#EBEBEB"/>
<path d="M173.194 218.466C173.492 218.385 173.8 218.345 174.109 218.35C174.418 218.344 174.726 218.384 175.024 218.466C174.726 218.548 174.418 218.588 174.109 218.582C173.8 218.587 173.492 218.547 173.194 218.466Z" fill="#EBEBEB"/>
<path d="M173.194 222.398C173.508 222.292 173.836 222.233 174.168 222.224C174.477 222.219 174.785 222.258 175.083 222.34C174.785 222.423 174.477 222.462 174.168 222.457C173.842 222.486 173.514 222.466 173.194 222.398Z" fill="#EBEBEB"/>
<path d="M173.194 226.332C173.49 226.243 173.799 226.204 174.109 226.215C174.418 226.203 174.728 226.242 175.024 226.332C174.725 226.407 174.418 226.446 174.109 226.448C173.8 226.445 173.493 226.406 173.194 226.332Z" fill="#EBEBEB"/>
<path d="M173.194 230.264C173.49 230.176 173.799 230.136 174.109 230.148C174.418 230.136 174.728 230.175 175.024 230.264C174.725 230.34 174.418 230.379 174.109 230.381C173.8 230.378 173.493 230.339 173.194 230.264Z" fill="#EBEBEB"/>
<path d="M173.194 234.183C173.493 234.108 173.8 234.069 174.109 234.066C174.418 234.068 174.725 234.107 175.024 234.183C174.728 234.272 174.418 234.311 174.109 234.299C173.799 234.31 173.49 234.271 173.194 234.183Z" fill="#EBEBEB"/>
<path d="M173.194 238.115C173.493 238.041 173.8 238.002 174.109 237.999C174.418 238.001 174.725 238.04 175.024 238.115C174.728 238.205 174.418 238.244 174.109 238.232C173.799 238.243 173.49 238.204 173.194 238.115Z" fill="#EBEBEB"/>
<path d="M173.194 242.048C173.492 241.967 173.8 241.927 174.109 241.932C174.418 241.926 174.726 241.966 175.024 242.048C174.726 242.131 174.418 242.17 174.109 242.164C173.8 242.169 173.492 242.13 173.194 242.048Z" fill="#EBEBEB"/>
<path d="M623.108 268.233H581.869V289.359H623.108V268.233Z" fill="#230067"/>
<path d="M618.341 273.087H586.607V273.95H618.341V273.087Z" fill="white"/>
<path d="M618.341 276.61H586.607V277.473H618.341V276.61Z" fill="white"/>
<path d="M618.341 280.134H586.607V280.996H618.341V280.134Z" fill="white"/>
<path d="M618.341 283.643H586.607V284.505H618.341V283.643Z" fill="white"/>
<path d="M180.471 414.111H139.231V435.237H180.471V414.111Z" fill="#230067"/>
<path d="M175.718 418.965H143.984V419.828H175.718V418.965Z" fill="white"/>
<path d="M175.718 422.489H143.984V423.351H175.718V422.489Z" fill="white"/>
<path d="M175.718 425.998H143.984V426.86H175.718V425.998Z" fill="white"/>
<path d="M175.718 429.521H143.984V430.384H175.718V429.521Z" fill="white"/>
<path d="M340.454 132.296H299.215V153.422H340.454V132.296Z" fill="#230067"/>
<path d="M335.702 137.15H303.968V138.013H335.702V137.15Z" fill="white"/>
<path d="M335.702 140.674H303.968V141.536H335.702V140.674Z" fill="white"/>
<path d="M335.702 144.197H303.968V145.06H335.702V144.197Z" fill="white"/>
<path d="M335.702 147.72H303.968V148.583H335.702V147.72Z" fill="white"/>
<path d="M421.767 511.568H380.528V532.694H421.767V511.568Z" fill="#230067"/>
<path d="M417.014 516.437H385.28V517.299H417.014V516.437Z" fill="white"/>
<path d="M417.014 519.946H385.28V520.808H417.014V519.946Z" fill="white"/>
<path d="M417.014 523.469H385.28V524.332H417.014V523.469Z" fill="white"/>
<path d="M417.014 526.992H385.28V527.855H417.014V526.992Z" fill="white"/>
</svg>
